# xmcd
#
# Track frame offsets: 
#        150
#        11546
#        24273
#        36321
#        49530
#        64642
#        81286
#        92935
#        106169
#        121353
#        135097
#        145441
#        159112
#        172431
#
# Disc length: 2489 seconds
#
# Revision: 2
# Processed by: cddbd v1.5.1PL0 Copyright (c) Steve Scherf et al.
# Submitted via: ExactAudioCopy v0.95a5
#
DISCID=b009b70e
DTITLE=The Waco Brothers - To the Last Dead Cowboy
DYEAR=1995
DGENRE=Alternative and Punk
TTITLE0=Geronimo
TTITLE1=Plenty Tough Union Made
TTITLE2=Harm's Way
TTITLE3=Bully
TTITLE4=If You Don't Change Your Mind
TTITLE5=Lake of Vinegar
TTITLE6=Too Sweet to Die
TTITLE7=Sometimes I Wonder
TTITLE8=To the Last Dead Cowboy
TTITLE9=K.T. Tennessee
TTITLE10=Whisperin' in My Ear
TTITLE11=Bad Times (Are Comin' Round Again)
TTITLE12=Red Door
TTITLE13=$ Bill the Cowboy
EXTD=
EXTT0=
EXTT1=
EXTT2=
EXTT3=
EXTT4=
EXTT5=
EXTT6=
EXTT7=
EXTT8=
EXTT9=
EXTT10=
EXTT11=
EXTT12=
EXTT13=
PLAYORDER=
